<?xml version="1.0" encoding="iso-8859-1"?>
<!-- Uploaded to: SVG Repo, www.svgrepo.com, Generator: SVG Repo Mixer Tools -->
<svg height="800px" width="800px" version="1.1" id="Capa_1" xmlns="http://www.w3.org/2000/svg" xmlns:xlink="http://www.w3.org/1999/xlink" 
	 viewBox="0 0 264.362 264.362" xml:space="preserve">
<g>
	<g>
		<path style="fill:#010002;" d="M147.47,38.241v38.878c0,3.372-0.538,6.543-1.479,9.344c-1.686,4.971-4.873,9.703-4.873,11.721
			c0,2.023,6.663,3.329,14.756,1.991c13.592-2.246,22.643-5.912,28.327-9.127c3.796-2.154,7.006-10.584,6.462-17.019l-2.839-43.632
			c-0.538-8.186-6.32-18.868-13.755-22.333c-9.828-4.591-19.494-6.701-27.059-7.642c-0.919-0.114-1.909-0.212-2.948-0.294
			c-1.621-0.131-2.943,4.476-2.943,10.253c0,5.771,3.187,13.543,4.873,18.515C146.937,31.692,147.47,34.863,147.47,38.241z"/>
		<path style="fill:#010002;" d="M80.183,91.049c6.059,3.427,15.996,7.359,31.302,9.529c8.121,1.153,14.783-0.397,14.783-2.605
			s-2.888-7.093-4.422-11.89c-0.865-2.703-1.354-5.749-1.354-8.969V38.236c0-3.22,0.49-6.26,1.354-8.974
			c1.534-4.792,4.422-12.722,4.422-18.683c0-5.972-2.002-10.742-4.46-10.574c-1.594,0.103-3.089,0.245-4.438,0.413
			c-7.566,0.941-17.231,3.057-27.054,7.642c-7.441,3.47-13.228,14.152-13.755,22.333l-2.839,43.491
			C73.167,80.464,76.376,88.9,80.183,91.049z"/>
		<path style="fill:#010002;" d="M220.212,81.242c-1.49-14.919-5.009-27.119-9.818-37.1c-3.563-7.386-7.19-6.086-6.663,2.105
			l1.741,26.673c0.903,10.786-4.063,25.444-13.962,31.052c-9.986,5.646-28.354,12.504-59.177,13.13
			c-31.15-0.625-49.506-7.479-59.476-13.13c-9.894-5.597-14.87-20.25-13.962-31.177l1.735-26.548
			c0.533-8.186-3.095-9.491-6.663-2.105c-4.808,9.975-8.322,22.181-9.823,37.1c-8.289,83.044-2.899,161.562,73.493,181.561
			c7.93,2.078,21.147,2.078,29.094,0C223.111,242.804,228.517,164.286,220.212,81.242z"/>
		<path style="fill:#010002;" d="M126.268,63.456c0,9.79,3.323,17.731,7.424,17.731s7.424-7.941,7.424-17.731V50.653
			c0-9.79-3.323-17.731-7.424-17.731s-7.424,7.941-7.424,17.731C126.268,50.653,126.268,63.456,126.268,63.456z"/>
	</g>
</g>
</svg>