<?xml version="1.0" encoding="iso-8859-1"?>
<!-- Uploaded to: SVG Repo, www.svgrepo.com, Generator: SVG Repo Mixer Tools -->
<!DOCTYPE svg PUBLIC "-//W3C//DTD SVG 1.1//EN" "http://www.w3.org/Graphics/SVG/1.1/DTD/svg11.dtd">
<svg fill="#000000" version="1.1" id="Capa_1" xmlns="http://www.w3.org/2000/svg" xmlns:xlink="http://www.w3.org/1999/xlink" 
	 width="800px" height="800px" viewBox="0 0 45.546 45.545"
	 xml:space="preserve">
<g>
	<g>
		<path d="M37.738,27.358c0.001,0,0.002-0.037,0.002-0.05c0-9.292-7.533-16.83-16.825-16.83S4.09,18.019,4.09,27.311
			c0,0.012,0.001,0.047,0.001,0.047H37.738z"/>
		<path d="M41.297,33.296c-0.138-1.524-1.417-2.699-2.948-2.699H3.482c-1.532,0-2.811,1.175-2.949,2.699l-0.521,5.739
			c-0.076,0.828,0.202,1.638,0.762,2.252c0.561,0.613,1.354,0.951,2.187,0.951H38.87c0.832,0,1.625-0.336,2.188-0.951
			c0.561-0.613,0.838-1.432,0.762-2.26L41.297,33.296z"/>
		<path d="M45.545,11.803c-0.016-0.785-0.342-1.532-0.907-2.076l-5.664-5.445c-0.566-0.544-1.326-0.841-2.11-0.826
			c-0.785,0.016-1.532,0.342-2.076,0.908l-2.039,2.121c-3.481-2.02-7.524-3.178-11.832-3.178c-1.104,0-1.998,0.895-1.998,1.998
			s0.895,1.998,1.998,1.998c10.841,0,19.662,8.821,19.662,19.663c0,1.103,0.896,1.998,1.998,1.998c1.104,0,1.998-0.896,1.998-1.998
			c0-3.728-0.867-7.256-2.409-10.396l2.556-2.658C45.264,13.348,45.562,12.588,45.545,11.803z"/>
	</g>
</g>
</svg>