{
	"asset":{
		"generator":"Khronos glTF Blender I/O v3.6.27",
		"version":"2.0"
	},
	"scene":0,
	"scenes":[
		{
			"name":"Scene",
			"nodes":[
				0,
				1,
				2,
				3,
				4,
				5,
				6,
				7,
				8
			]
		}
	],
	"nodes":[
		{
			"mesh":0,
			"name":"Earth"
		},
		{
			"mesh":1,
			"name":"Ocean",
			"scale":[
				1.0075900554656982,
				1.0075900554656982,
				1.0075900554656982
			]
		},
		{
			"mesh":2,
			"name":"Kame House",
			"rotation":[
				0.218889057636261,
				0.7200219631195068,
				-0.6564281582832336,
				0.052517183125019073
			],
			"scale":[
				0.25,
				0.15000000596046448,
				0.25
			],
			"translation":[
				3.926408052444458,
				0.5089519619941711,
				-9.459356307983398
			]
		},
		{
			"mesh":3,
			"name":"PalmTree",
			"rotation":[
				-0.55423504114151,
				0.05020782724022865,
				-0.3295763432979584,
				0.7626808881759644
			],
			"scale":[
				0.05000000074505806,
				0.02500000037252903,
				0.20000001788139343
			],
			"translation":[
				4.151534557342529,
				1.5012502670288086,
				-9.143428802490234
			]
		},
		{
			"mesh":4,
			"name":"PalmTree.001",
			"rotation":[
				-0.6428691744804382,
				-0.2926175594329834,
				-0.050162576138973236,
				0.7061005234718323
			],
			"scale":[
				0.04274890571832657,
				0.021374450996518135,
				0.17099563777446747
			],
			"translation":[
				3.315065622329712,
				1.6874940395355225,
				-9.43608283996582
			]
		},
		{
			"mesh":5,
			"name":"PalmTree.002",
			"rotation":[
				-0.14768512547016144,
				0.5836939811706543,
				-0.6276832222938538,
				0.493461549282074
			],
			"scale":[
				0.053661979734897614,
				0.026830989867448807,
				0.21464790403842926
			],
			"translation":[
				3.8855044841766357,
				2.7733757495880127,
				-8.954435348510742
			]
		},
		{
			"mesh":6,
			"name":"PalmTree.003",
			"rotation":[
				-0.5542351007461548,
				0.050207871943712234,
				-0.32957637310028076,
				0.7626808285713196
			],
			"scale":[
				0.05049171298742294,
				0.02717459760606289,
				0.20336362719535828
			],
			"translation":[
				2.8309383392333984,
				-0.16571712493896484,
				-9.746610641479492
			]
		},
		{
			"mesh":7,
			"name":"PalmTree.004",
			"rotation":[
				-0.6127789616584778,
				-0.5415032505989075,
				0.2007463127374649,
				0.5394229888916016
			],
			"scale":[
				0.035062000155448914,
				0.017531000077724457,
				0.14024800062179565
			],
			"translation":[
				4.654809474945068,
				1.0932502746582031,
				-8.94305419921875
			]
		},
		{
			"mesh":8,
			"name":"PalmTree.005",
			"rotation":[
				-0.3611414432525635,
				-0.7584894895553589,
				0.5342039465904236,
				0.09432235360145569
			],
			"scale":[
				0.04099994897842407,
				0.020499978214502335,
				0.16399982571601868
			],
			"translation":[
				4.537629127502441,
				1.9303743839263916,
				-8.86468505859375
			]
		}
	],
	"materials":[
		{
			"doubleSided":true,
			"name":"Material.002",
			"pbrMetallicRoughness":{
				"baseColorFactor":[
					0.4152125418186188,
					0.8000000715255737,
					0.2766417860984802,
					1
				],
				"metallicFactor":0,
				"roughnessFactor":0.5
			}
		},
		{
			"doubleSided":true,
			"name":"Material.003",
			"pbrMetallicRoughness":{
				"baseColorFactor":[
					0.03645583242177963,
					0.40728938579559326,
					0.8000000715255737,
					1
				],
				"metallicFactor":0,
				"roughnessFactor":0.5
			}
		},
		{
			"doubleSided":true,
			"name":"Pink Wall",
			"pbrMetallicRoughness":{
				"baseColorFactor":[
					0.8000000715255737,
					0.35564303398132324,
					0.729656994342804,
					1
				],
				"metallicFactor":0,
				"roughnessFactor":0.5
			}
		},
		{
			"doubleSided":true,
			"name":"Red Roof",
			"pbrMetallicRoughness":{
				"baseColorFactor":[
					0.42922455072402954,
					0.06450407207012177,
					0.053084056824445724,
					1
				],
				"metallicFactor":0,
				"roughnessFactor":0.5
			}
		},
		{
			"doubleSided":true,
			"name":"Material",
			"pbrMetallicRoughness":{
				"baseColorTexture":{
					"index":0
				},
				"metallicFactor":0,
				"roughnessFactor":0.5
			}
		},
		{
			"doubleSided":true,
			"name":"Material.004",
			"pbrMetallicRoughness":{
				"baseColorTexture":{
					"index":1
				},
				"metallicFactor":0,
				"roughnessFactor":0.5
			}
		}
	],
	"meshes":[
		{
			"name":"Icosphere.002",
			"primitives":[
				{
					"attributes":{
						"POSITION":0,
						"NORMAL":1,
						"TEXCOORD_0":2
					},
					"indices":3,
					"material":0
				}
			]
		},
		{
			"name":"Icosphere.003",
			"primitives":[
				{
					"attributes":{
						"POSITION":4,
						"NORMAL":5,
						"TEXCOORD_0":6
					},
					"indices":7,
					"material":1
				}
			]
		},
		{
			"name":"Cube.001",
			"primitives":[
				{
					"attributes":{
						"POSITION":8,
						"NORMAL":9,
						"TEXCOORD_0":10
					},
					"indices":11,
					"material":2
				},
				{
					"attributes":{
						"POSITION":12,
						"NORMAL":13,
						"TEXCOORD_0":14
					},
					"indices":15,
					"material":3
				}
			]
		},
		{
			"name":"Cube.002",
			"primitives":[
				{
					"attributes":{
						"POSITION":16,
						"NORMAL":17,
						"TEXCOORD_0":18
					},
					"indices":19,
					"material":4
				},
				{
					"attributes":{
						"POSITION":20,
						"NORMAL":21,
						"TEXCOORD_0":22
					},
					"indices":23,
					"material":5
				}
			]
		},
		{
			"name":"Cube.010",
			"primitives":[
				{
					"attributes":{
						"POSITION":24,
						"NORMAL":25,
						"TEXCOORD_0":26
					},
					"indices":19,
					"material":4
				},
				{
					"attributes":{
						"POSITION":27,
						"NORMAL":28,
						"TEXCOORD_0":29
					},
					"indices":23,
					"material":5
				}
			]
		},
		{
			"name":"Cube.011",
			"primitives":[
				{
					"attributes":{
						"POSITION":30,
						"NORMAL":31,
						"TEXCOORD_0":32
					},
					"indices":19,
					"material":4
				},
				{
					"attributes":{
						"POSITION":33,
						"NORMAL":34,
						"TEXCOORD_0":35
					},
					"indices":23,
					"material":5
				}
			]
		},
		{
			"name":"Cube.012",
			"primitives":[
				{
					"attributes":{
						"POSITION":36,
						"NORMAL":37,
						"TEXCOORD_0":38
					},
					"indices":19,
					"material":4
				},
				{
					"attributes":{
						"POSITION":39,
						"NORMAL":40,
						"TEXCOORD_0":41
					},
					"indices":23,
					"material":5
				}
			]
		},
		{
			"name":"Cube.013",
			"primitives":[
				{
					"attributes":{
						"POSITION":42,
						"NORMAL":43,
						"TEXCOORD_0":44
					},
					"indices":19,
					"material":4
				},
				{
					"attributes":{
						"POSITION":45,
						"NORMAL":46,
						"TEXCOORD_0":47
					},
					"indices":23,
					"material":5
				}
			]
		},
		{
			"name":"Cube.014",
			"primitives":[
				{
					"attributes":{
						"POSITION":48,
						"NORMAL":49,
						"TEXCOORD_0":50
					},
					"indices":19,
					"material":4
				},
				{
					"attributes":{
						"POSITION":51,
						"NORMAL":52,
						"TEXCOORD_0":53
					},
					"indices":23,
					"material":5
				}
			]
		}
	],
	"textures":[
		{
			"sampler":0,
			"source":0
		},
		{
			"sampler":0,
			"source":0
		}
	],
	"images":[
		{
			"mimeType":"image/png",
			"name":"color-palette",
			"uri":"color-palette.png"
		}
	],
	"accessors":[
		{
			"bufferView":0,
			"componentType":5126,
			"count":4556,
			"max":[
				10.05359172821045,
				10,
				10.177337646484375
			],
			"min":[
				-10.177282333374023,
				-10.17785930633545,
				-10.056047439575195
			],
			"type":"VEC3"
		},
		{
			"bufferView":1,
			"componentType":5126,
			"count":4556,
			"type":"VEC3"
		},
		{
			"bufferView":2,
			"componentType":5126,
			"count":4556,
			"type":"VEC2"
		},
		{
			"bufferView":3,
			"componentType":5123,
			"count":4914,
			"type":"SCALAR"
		},
		{
			"bufferView":4,
			"componentType":5126,
			"count":3840,
			"max":[
				9.999999046325684,
				10,
				10
			],
			"min":[
				-9.999999046325684,
				-10,
				-10
			],
			"type":"VEC3"
		},
		{
			"bufferView":5,
			"componentType":5126,
			"count":3840,
			"type":"VEC3"
		},
		{
			"bufferView":6,
			"componentType":5126,
			"count":3840,
			"type":"VEC2"
		},
		{
			"bufferView":7,
			"componentType":5123,
			"count":3840,
			"type":"SCALAR"
		},
		{
			"bufferView":8,
			"componentType":5126,
			"count":26,
			"max":[
				1,
				2,
				1
			],
			"min":[
				-1,
				-1,
				-1
			],
			"type":"VEC3"
		},
		{
			"bufferView":9,
			"componentType":5126,
			"count":26,
			"type":"VEC3"
		},
		{
			"bufferView":10,
			"componentType":5126,
			"count":26,
			"type":"VEC2"
		},
		{
			"bufferView":11,
			"componentType":5123,
			"count":48,
			"type":"SCALAR"
		},
		{
			"bufferView":12,
			"componentType":5126,
			"count":8,
			"max":[
				1,
				2,
				1
			],
			"min":[
				-1,
				1,
				-1
			],
			"type":"VEC3"
		},
		{
			"bufferView":13,
			"componentType":5126,
			"count":8,
			"type":"VEC3"
		},
		{
			"bufferView":14,
			"componentType":5126,
			"count":8,
			"type":"VEC2"
		},
		{
			"bufferView":15,
			"componentType":5123,
			"count":12,
			"type":"SCALAR"
		},
		{
			"bufferView":16,
			"componentType":5126,
			"count":2318,
			"max":[
				8.310721397399902,
				33.61058044433594,
				1.729220986366272
			],
			"min":[
				-8.563618659973145,
				26.33046531677246,
				-2.399919033050537
			],
			"type":"VEC3"
		},
		{
			"bufferView":17,
			"componentType":5126,
			"count":2318,
			"type":"VEC3"
		},
		{
			"bufferView":18,
			"componentType":5126,
			"count":2318,
			"type":"VEC2"
		},
		{
			"bufferView":19,
			"componentType":5123,
			"count":3120,
			"type":"SCALAR"
		},
		{
			"bufferView":20,
			"componentType":5126,
			"count":352,
			"max":[
				3.6170477867126465,
				30.496862411499023,
				0.7309294939041138
			],
			"min":[
				-1.9287223815917969,
				-0.9892902374267578,
				-0.8427720069885254
			],
			"type":"VEC3"
		},
		{
			"bufferView":21,
			"componentType":5126,
			"count":352,
			"type":"VEC3"
		},
		{
			"bufferView":22,
			"componentType":5126,
			"count":352,
			"type":"VEC2"
		},
		{
			"bufferView":23,
			"componentType":5123,
			"count":564,
			"type":"SCALAR"
		},
		{
			"bufferView":24,
			"componentType":5126,
			"count":2318,
			"max":[
				8.310721397399902,
				33.61058044433594,
				1.729220986366272
			],
			"min":[
				-8.563618659973145,
				26.33046531677246,
				-2.399919033050537
			],
			"type":"VEC3"
		},
		{
			"bufferView":25,
			"componentType":5126,
			"count":2318,
			"type":"VEC3"
		},
		{
			"bufferView":26,
			"componentType":5126,
			"count":2318,
			"type":"VEC2"
		},
		{
			"bufferView":27,
			"componentType":5126,
			"count":352,
			"max":[
				3.6170477867126465,
				30.496862411499023,
				0.7309294939041138
			],
			"min":[
				-1.9287223815917969,
				-0.9892902374267578,
				-0.8427720069885254
			],
			"type":"VEC3"
		},
		{
			"bufferView":28,
			"componentType":5126,
			"count":352,
			"type":"VEC3"
		},
		{
			"bufferView":29,
			"componentType":5126,
			"count":352,
			"type":"VEC2"
		},
		{
			"bufferView":30,
			"componentType":5126,
			"count":2318,
			"max":[
				8.310721397399902,
				33.61058044433594,
				1.729220986366272
			],
			"min":[
				-8.563618659973145,
				26.33046531677246,
				-2.399919033050537
			],
			"type":"VEC3"
		},
		{
			"bufferView":31,
			"componentType":5126,
			"count":2318,
			"type":"VEC3"
		},
		{
			"bufferView":32,
			"componentType":5126,
			"count":2318,
			"type":"VEC2"
		},
		{
			"bufferView":33,
			"componentType":5126,
			"count":352,
			"max":[
				3.6170477867126465,
				30.496862411499023,
				0.7309294939041138
			],
			"min":[
				-1.9287223815917969,
				-0.9892902374267578,
				-0.8427720069885254
			],
			"type":"VEC3"
		},
		{
			"bufferView":34,
			"componentType":5126,
			"count":352,
			"type":"VEC3"
		},
		{
			"bufferView":35,
			"componentType":5126,
			"count":352,
			"type":"VEC2"
		},
		{
			"bufferView":36,
			"componentType":5126,
			"count":2318,
			"max":[
				8.310721397399902,
				33.61058044433594,
				1.729220986366272
			],
			"min":[
				-8.563618659973145,
				26.33046531677246,
				-2.399919033050537
			],
			"type":"VEC3"
		},
		{
			"bufferView":37,
			"componentType":5126,
			"count":2318,
			"type":"VEC3"
		},
		{
			"bufferView":38,
			"componentType":5126,
			"count":2318,
			"type":"VEC2"
		},
		{
			"bufferView":39,
			"componentType":5126,
			"count":352,
			"max":[
				3.6170477867126465,
				30.496862411499023,
				0.7309294939041138
			],
			"min":[
				-1.9287223815917969,
				-0.9892902374267578,
				-0.8427720069885254
			],
			"type":"VEC3"
		},
		{
			"bufferView":40,
			"componentType":5126,
			"count":352,
			"type":"VEC3"
		},
		{
			"bufferView":41,
			"componentType":5126,
			"count":352,
			"type":"VEC2"
		},
		{
			"bufferView":42,
			"componentType":5126,
			"count":2318,
			"max":[
				8.310721397399902,
				33.61058044433594,
				1.729220986366272
			],
			"min":[
				-8.563618659973145,
				26.33046531677246,
				-2.399919033050537
			],
			"type":"VEC3"
		},
		{
			"bufferView":43,
			"componentType":5126,
			"count":2318,
			"type":"VEC3"
		},
		{
			"bufferView":44,
			"componentType":5126,
			"count":2318,
			"type":"VEC2"
		},
		{
			"bufferView":45,
			"componentType":5126,
			"count":352,
			"max":[
				3.6170477867126465,
				30.496862411499023,
				0.7309294939041138
			],
			"min":[
				-1.9287223815917969,
				-0.9892902374267578,
				-0.8427720069885254
			],
			"type":"VEC3"
		},
		{
			"bufferView":46,
			"componentType":5126,
			"count":352,
			"type":"VEC3"
		},
		{
			"bufferView":47,
			"componentType":5126,
			"count":352,
			"type":"VEC2"
		},
		{
			"bufferView":48,
			"componentType":5126,
			"count":2318,
			"max":[
				8.310721397399902,
				33.61058044433594,
				1.729220986366272
			],
			"min":[
				-8.563618659973145,
				26.33046531677246,
				-2.399919033050537
			],
			"type":"VEC3"
		},
		{
			"bufferView":49,
			"componentType":5126,
			"count":2318,
			"type":"VEC3"
		},
		{
			"bufferView":50,
			"componentType":5126,
			"count":2318,
			"type":"VEC2"
		},
		{
			"bufferView":51,
			"componentType":5126,
			"count":352,
			"max":[
				3.6170477867126465,
				30.496862411499023,
				0.7309294939041138
			],
			"min":[
				-1.9287223815917969,
				-0.9892902374267578,
				-0.8427720069885254
			],
			"type":"VEC3"
		},
		{
			"bufferView":52,
			"componentType":5126,
			"count":352,
			"type":"VEC3"
		},
		{
			"bufferView":53,
			"componentType":5126,
			"count":352,
			"type":"VEC2"
		}
	],
	"bufferViews":[
		{
			"buffer":0,
			"byteLength":54672,
			"byteOffset":0,
			"target":34962
		},
		{
			"buffer":0,
			"byteLength":54672,
			"byteOffset":54672,
			"target":34962
		},
		{
			"buffer":0,
			"byteLength":36448,
			"byteOffset":109344,
			"target":34962
		},
		{
			"buffer":0,
			"byteLength":9828,
			"byteOffset":145792,
			"target":34963
		},
		{
			"buffer":0,
			"byteLength":46080,
			"byteOffset":155620,
			"target":34962
		},
		{
			"buffer":0,
			"byteLength":46080,
			"byteOffset":201700,
			"target":34962
		},
		{
			"buffer":0,
			"byteLength":30720,
			"byteOffset":247780,
			"target":34962
		},
		{
			"buffer":0,
			"byteLength":7680,
			"byteOffset":278500,
			"target":34963
		},
		{
			"buffer":0,
			"byteLength":312,
			"byteOffset":286180,
			"target":34962
		},
		{
			"buffer":0,
			"byteLength":312,
			"byteOffset":286492,
			"target":34962
		},
		{
			"buffer":0,
			"byteLength":208,
			"byteOffset":286804,
			"target":34962
		},
		{
			"buffer":0,
			"byteLength":96,
			"byteOffset":287012,
			"target":34963
		},
		{
			"buffer":0,
			"byteLength":96,
			"byteOffset":287108,
			"target":34962
		},
		{
			"buffer":0,
			"byteLength":96,
			"byteOffset":287204,
			"target":34962
		},
		{
			"buffer":0,
			"byteLength":64,
			"byteOffset":287300,
			"target":34962
		},
		{
			"buffer":0,
			"byteLength":24,
			"byteOffset":287364,
			"target":34963
		},
		{
			"buffer":0,
			"byteLength":27816,
			"byteOffset":287388,
			"target":34962
		},
		{
			"buffer":0,
			"byteLength":27816,
			"byteOffset":315204,
			"target":34962
		},
		{
			"buffer":0,
			"byteLength":18544,
			"byteOffset":343020,
			"target":34962
		},
		{
			"buffer":0,
			"byteLength":6240,
			"byteOffset":361564,
			"target":34963
		},
		{
			"buffer":0,
			"byteLength":4224,
			"byteOffset":367804,
			"target":34962
		},
		{
			"buffer":0,
			"byteLength":4224,
			"byteOffset":372028,
			"target":34962
		},
		{
			"buffer":0,
			"byteLength":2816,
			"byteOffset":376252,
			"target":34962
		},
		{
			"buffer":0,
			"byteLength":1128,
			"byteOffset":379068,
			"target":34963
		},
		{
			"buffer":0,
			"byteLength":27816,
			"byteOffset":380196,
			"target":34962
		},
		{
			"buffer":0,
			"byteLength":27816,
			"byteOffset":408012,
			"target":34962
		},
		{
			"buffer":0,
			"byteLength":18544,
			"byteOffset":435828,
			"target":34962
		},
		{
			"buffer":0,
			"byteLength":4224,
			"byteOffset":454372,
			"target":34962
		},
		{
			"buffer":0,
			"byteLength":4224,
			"byteOffset":458596,
			"target":34962
		},
		{
			"buffer":0,
			"byteLength":2816,
			"byteOffset":462820,
			"target":34962
		},
		{
			"buffer":0,
			"byteLength":27816,
			"byteOffset":465636,
			"target":34962
		},
		{
			"buffer":0,
			"byteLength":27816,
			"byteOffset":493452,
			"target":34962
		},
		{
			"buffer":0,
			"byteLength":18544,
			"byteOffset":521268,
			"target":34962
		},
		{
			"buffer":0,
			"byteLength":4224,
			"byteOffset":539812,
			"target":34962
		},
		{
			"buffer":0,
			"byteLength":4224,
			"byteOffset":544036,
			"target":34962
		},
		{
			"buffer":0,
			"byteLength":2816,
			"byteOffset":548260,
			"target":34962
		},
		{
			"buffer":0,
			"byteLength":27816,
			"byteOffset":551076,
			"target":34962
		},
		{
			"buffer":0,
			"byteLength":27816,
			"byteOffset":578892,
			"target":34962
		},
		{
			"buffer":0,
			"byteLength":18544,
			"byteOffset":606708,
			"target":34962
		},
		{
			"buffer":0,
			"byteLength":4224,
			"byteOffset":625252,
			"target":34962
		},
		{
			"buffer":0,
			"byteLength":4224,
			"byteOffset":629476,
			"target":34962
		},
		{
			"buffer":0,
			"byteLength":2816,
			"byteOffset":633700,
			"target":34962
		},
		{
			"buffer":0,
			"byteLength":27816,
			"byteOffset":636516,
			"target":34962
		},
		{
			"buffer":0,
			"byteLength":27816,
			"byteOffset":664332,
			"target":34962
		},
		{
			"buffer":0,
			"byteLength":18544,
			"byteOffset":692148,
			"target":34962
		},
		{
			"buffer":0,
			"byteLength":4224,
			"byteOffset":710692,
			"target":34962
		},
		{
			"buffer":0,
			"byteLength":4224,
			"byteOffset":714916,
			"target":34962
		},
		{
			"buffer":0,
			"byteLength":2816,
			"byteOffset":719140,
			"target":34962
		},
		{
			"buffer":0,
			"byteLength":27816,
			"byteOffset":721956,
			"target":34962
		},
		{
			"buffer":0,
			"byteLength":27816,
			"byteOffset":749772,
			"target":34962
		},
		{
			"buffer":0,
			"byteLength":18544,
			"byteOffset":777588,
			"target":34962
		},
		{
			"buffer":0,
			"byteLength":4224,
			"byteOffset":796132,
			"target":34962
		},
		{
			"buffer":0,
			"byteLength":4224,
			"byteOffset":800356,
			"target":34962
		},
		{
			"buffer":0,
			"byteLength":2816,
			"byteOffset":804580,
			"target":34962
		}
	],
	"samplers":[
		{
			"magFilter":9729,
			"minFilter":9987
		}
	],
	"buffers":[
		{
			"byteLength":807396,
			"uri":"my-world-1.bin"
		}
	]
}
