{
	"asset":{
		"generator":"Khronos glTF Blender I/O v3.6.28",
		"version":"2.0"
	},
	"scene":0,
	"scenes":[
		{
			"name":"Scene",
			"nodes":[
				0,
				1,
				2,
				3,
				4
			]
		}
	],
	"nodes":[
		{
			"mesh":0,
			"name":"MoonRocks",
			"rotation":[
				-0.5314334630966187,
				0.45342323184013367,
				0.5432335138320923,
				0.46570733189582825
			]
		},
		{
			"mesh":1,
			"name":"MoonAsteroidBelt",
			"rotation":[
				0.268362820148468,
				0.1172795370221138,
				-0.04834914579987526,
				0.9549290537834167
			]
		},
		{
			"mesh":2,
			"name":"SpaceShip",
			"rotation":[
				-0.5314334630966187,
				0.45342323184013367,
				0.5432335138320923,
				0.46570733189582825
			]
		},
		{
			"mesh":3,
			"name":"MoonPlanet",
			"rotation":[
				-0.5314334630966187,
				0.45342323184013367,
				0.5432335138320923,
				0.46570733189582825
			]
		},
		{
			"mesh":4,
			"name":"MoonRover",
			"rotation":[
				-0.5314334630966187,
				0.45342323184013367,
				0.5432335138320923,
				0.46570733189582825
			],
			"translation":[
				0.8548359870910645,
				0.14817379415035248,
				-0.4268570840358734
			]
		}
	],
	"animations":[
		{
			"channels":[
				{
					"sampler":0,
					"target":{
						"node":1,
						"path":"translation"
					}
				},
				{
					"sampler":1,
					"target":{
						"node":1,
						"path":"rotation"
					}
				}
			],
			"name":"MoonAsteroidBeltAction",
			"samplers":[
				{
					"input":20,
					"interpolation":"STEP",
					"output":21
				},
				{
					"input":22,
					"interpolation":"LINEAR",
					"output":23
				}
			]
		}
	],
	"materials":[
		{
			"doubleSided":true,
			"emissiveFactor":[
				1,
				1,
				1
			],
			"emissiveTexture":{
				"index":0
			},
			"name":"scene",
			"pbrMetallicRoughness":{
				"baseColorTexture":{
					"index":1
				},
				"metallicFactor":0
			}
		}
	],
	"meshes":[
		{
			"name":"planet.001",
			"primitives":[
				{
					"attributes":{
						"POSITION":0,
						"NORMAL":1,
						"TEXCOORD_0":2
					},
					"indices":3,
					"material":0
				}
			]
		},
		{
			"name":"planet.002",
			"primitives":[
				{
					"attributes":{
						"POSITION":4,
						"NORMAL":5,
						"TEXCOORD_0":6
					},
					"indices":7,
					"material":0
				}
			]
		},
		{
			"name":"planet.005",
			"primitives":[
				{
					"attributes":{
						"POSITION":8,
						"NORMAL":9,
						"TEXCOORD_0":10
					},
					"indices":11,
					"material":0
				}
			]
		},
		{
			"name":"planet.006",
			"primitives":[
				{
					"attributes":{
						"POSITION":12,
						"NORMAL":13,
						"TEXCOORD_0":14
					},
					"indices":15,
					"material":0
				}
			]
		},
		{
			"name":"planet.007",
			"primitives":[
				{
					"attributes":{
						"POSITION":16,
						"NORMAL":17,
						"TEXCOORD_0":18
					},
					"indices":19,
					"material":0
				}
			]
		}
	],
	"textures":[
		{
			"sampler":0,
			"source":0
		},
		{
			"sampler":0,
			"source":1
		}
	],
	"images":[
		{
			"mimeType":"image/png",
			"name":"scene_emissive",
			"uri":"scene_emissive.png"
		},
		{
			"mimeType":"image/png",
			"name":"scene_baseColor",
			"uri":"scene_baseColor.png"
		}
	],
	"accessors":[
		{
			"bufferView":0,
			"componentType":5126,
			"count":17066,
			"max":[
				0.9827600121498108,
				1.0352799892425537,
				1.1347399950027466
			],
			"min":[
				-1.376189947128296,
				-1.0842000246047974,
				-1.0110399723052979
			],
			"type":"VEC3"
		},
		{
			"bufferView":1,
			"componentType":5126,
			"count":17066,
			"type":"VEC3"
		},
		{
			"bufferView":2,
			"componentType":5126,
			"count":17066,
			"type":"VEC2"
		},
		{
			"bufferView":3,
			"componentType":5123,
			"count":22320,
			"type":"SCALAR"
		},
		{
			"bufferView":4,
			"componentType":5126,
			"count":80872,
			"max":[
				2.2047200202941895,
				2.25396990776062,
				0.7475600242614746
			],
			"min":[
				-2.332859992980957,
				-2.329580068588257,
				-0.787310004234314
			],
			"type":"VEC3"
		},
		{
			"bufferView":5,
			"componentType":5126,
			"count":80872,
			"type":"VEC3"
		},
		{
			"bufferView":6,
			"componentType":5126,
			"count":80872,
			"type":"VEC2"
		},
		{
			"bufferView":7,
			"componentType":5125,
			"count":109116,
			"type":"SCALAR"
		},
		{
			"bufferView":8,
			"componentType":5126,
			"count":11372,
			"max":[
				1.3478399515151978,
				0.17562000453472137,
				1.7064599990844727
			],
			"min":[
				0.3113200068473816,
				-0.48949000239372253,
				0.4692400097846985
			],
			"type":"VEC3"
		},
		{
			"bufferView":9,
			"componentType":5126,
			"count":11372,
			"type":"VEC3"
		},
		{
			"bufferView":10,
			"componentType":5126,
			"count":11372,
			"type":"VEC2"
		},
		{
			"bufferView":11,
			"componentType":5123,
			"count":14283,
			"type":"SCALAR"
		},
		{
			"bufferView":12,
			"componentType":5126,
			"count":200,
			"max":[
				1.003059983253479,
				1.003059983253479,
				1.015910029411316
			],
			"min":[
				-1.003059983253479,
				-1.003059983253479,
				-1.003059983253479
			],
			"type":"VEC3"
		},
		{
			"bufferView":13,
			"componentType":5126,
			"count":200,
			"type":"VEC3"
		},
		{
			"bufferView":14,
			"componentType":5126,
			"count":200,
			"type":"VEC2"
		},
		{
			"bufferView":15,
			"componentType":5123,
			"count":258,
			"type":"SCALAR"
		},
		{
			"bufferView":16,
			"componentType":5126,
			"count":2822,
			"max":[
				0.09764215350151062,
				0.04176461696624756,
				0.13081474602222443
			],
			"min":[
				-0.09023788571357727,
				-0.21841537952423096,
				-0.08257514238357544
			],
			"type":"VEC3"
		},
		{
			"bufferView":17,
			"componentType":5126,
			"count":2822,
			"type":"VEC3"
		},
		{
			"bufferView":18,
			"componentType":5126,
			"count":2822,
			"type":"VEC2"
		},
		{
			"bufferView":19,
			"componentType":5123,
			"count":4032,
			"type":"SCALAR"
		},
		{
			"bufferView":20,
			"componentType":5126,
			"count":2,
			"max":[
				49.833333333333336
			],
			"min":[
				0.041666666666666664
			],
			"type":"SCALAR"
		},
		{
			"bufferView":21,
			"componentType":5126,
			"count":2,
			"type":"VEC3"
		},
		{
			"bufferView":22,
			"componentType":5126,
			"count":1196,
			"max":[
				49.833333333333336
			],
			"min":[
				0.041666666666666664
			],
			"type":"SCALAR"
		},
		{
			"bufferView":23,
			"componentType":5126,
			"count":1196,
			"type":"VEC4"
		}
	],
	"bufferViews":[
		{
			"buffer":0,
			"byteLength":204792,
			"byteOffset":0,
			"target":34962
		},
		{
			"buffer":0,
			"byteLength":204792,
			"byteOffset":204792,
			"target":34962
		},
		{
			"buffer":0,
			"byteLength":136528,
			"byteOffset":409584,
			"target":34962
		},
		{
			"buffer":0,
			"byteLength":44640,
			"byteOffset":546112,
			"target":34963
		},
		{
			"buffer":0,
			"byteLength":970464,
			"byteOffset":590752,
			"target":34962
		},
		{
			"buffer":0,
			"byteLength":970464,
			"byteOffset":1561216,
			"target":34962
		},
		{
			"buffer":0,
			"byteLength":646976,
			"byteOffset":2531680,
			"target":34962
		},
		{
			"buffer":0,
			"byteLength":436464,
			"byteOffset":3178656,
			"target":34963
		},
		{
			"buffer":0,
			"byteLength":136464,
			"byteOffset":3615120,
			"target":34962
		},
		{
			"buffer":0,
			"byteLength":136464,
			"byteOffset":3751584,
			"target":34962
		},
		{
			"buffer":0,
			"byteLength":90976,
			"byteOffset":3888048,
			"target":34962
		},
		{
			"buffer":0,
			"byteLength":28566,
			"byteOffset":3979024,
			"target":34963
		},
		{
			"buffer":0,
			"byteLength":2400,
			"byteOffset":4007592,
			"target":34962
		},
		{
			"buffer":0,
			"byteLength":2400,
			"byteOffset":4009992,
			"target":34962
		},
		{
			"buffer":0,
			"byteLength":1600,
			"byteOffset":4012392,
			"target":34962
		},
		{
			"buffer":0,
			"byteLength":516,
			"byteOffset":4013992,
			"target":34963
		},
		{
			"buffer":0,
			"byteLength":33864,
			"byteOffset":4014508,
			"target":34962
		},
		{
			"buffer":0,
			"byteLength":33864,
			"byteOffset":4048372,
			"target":34962
		},
		{
			"buffer":0,
			"byteLength":22576,
			"byteOffset":4082236,
			"target":34962
		},
		{
			"buffer":0,
			"byteLength":8064,
			"byteOffset":4104812,
			"target":34963
		},
		{
			"buffer":0,
			"byteLength":8,
			"byteOffset":4112876
		},
		{
			"buffer":0,
			"byteLength":24,
			"byteOffset":4112884
		},
		{
			"buffer":0,
			"byteLength":4784,
			"byteOffset":4112908
		},
		{
			"buffer":0,
			"byteLength":19136,
			"byteOffset":4117692
		}
	],
	"samplers":[
		{
			"magFilter":9729,
			"minFilter":9987
		}
	],
	"buffers":[
		{
			"byteLength":4136828,
			"uri":"my-moon-1.bin"
		}
	]
}
